<svg height="512pt" viewBox="0 -6 512 512" width="512pt" xmlns="http://www.w3.org/2000/svg"><path d="m314.828125 473.566406h-117.65625l36.542969-181.949218h44.570312zm0 0" fill="#62a6fd"/><path d="m270.734375 291.617188-36.535156 181.949218h-37.027344l36.539063-181.949218zm0 0" fill="#4394fb"/><path d="m349.355469 500.015625h-186.710938c-6.863281 0-12.429687-5.566406-12.429687-12.429687v-15.867188c0-6.867188 5.566406-12.429688 12.429687-12.429688h186.710938c6.863281 0 12.429687 5.5625 12.429687 12.429688v15.867188c0 6.863281-5.566406 12.429687-12.429687 12.429687zm0 0" fill="#81b8fd"/><path d="m199.667969 500.015625h-37.023438c-6.867187 0-12.429687-5.566406-12.429687-12.429687v-15.867188c0-6.867188 5.5625-12.429688 12.429687-12.429688h37.023438c-6.863281 0-12.429688 5.5625-12.429688 12.429688v15.867188c0 6.863281 5.566407 12.429687 12.429688 12.429687zm0 0" fill="#62a6fd"/><path d="m512 19.074219v330.132812c0 10.535157-8.535156 19.074219-19.074219 19.074219h-473.851562c-10.539063 0-19.074219-8.539062-19.074219-19.074219v-330.132812c0-10.539063 8.535156-19.074219 19.074219-19.074219h473.851562c10.539063 0 19.074219 8.535156 19.074219 19.074219zm0 0" fill="#c0dbff"/><path d="m56.097656 368.28125h-37.023437c-10.539063 0-19.074219-8.539062-19.074219-19.074219v-330.132812c0-10.539063 8.535156-19.074219 19.074219-19.074219h37.023437c-10.535156 0-19.074218 8.535156-19.074218 19.074219v330.132812c0 10.535157 8.539062 19.074219 19.074218 19.074219zm0 0" fill="#a0cafe"/><path d="m45.222656 48.3125h421.554688c5.402344 0 9.785156 4.378906 9.785156 9.785156v185.652344c0 5.40625-4.382812 9.785156-9.785156 9.785156h-421.554688c-5.402344 0-9.785156-4.378906-9.785156-9.785156v-185.652344c0-5.402344 4.382812-9.785156 9.785156-9.785156zm0 0" fill="#fff5f4"/><path d="m512 302.117188v47.089843c0 10.535157-8.535156 19.074219-19.074219 19.074219h-473.851562c-10.539063 0-19.074219-8.539062-19.074219-19.074219v-47.089843zm0 0" fill="#81b8fd"/><path d="m478.015625 335.199219c0 7.085937-5.742187 12.828125-12.824219 12.828125-7.085937 0-12.828125-5.742188-12.828125-12.828125 0-7.082031 5.742188-12.824219 12.828125-12.824219 7.082032 0 12.824219 5.742188 12.824219 12.824219zm0 0" fill="#ffe046"/><path d="m423.539062 335.199219c0 7.085937-5.746093 12.828125-12.828124 12.828125-7.085938 0-12.828126-5.742188-12.828126-12.828125 0-7.082031 5.742188-12.824219 12.828126-12.824219 7.082031 0 12.828124 5.742188 12.828124 12.824219zm0 0" fill="#ffe046"/><path d="m82.246094 253.535156h-37.023438c-5.40625 0-9.785156-4.378906-9.785156-9.785156v-185.652344c0-5.40625 4.378906-9.785156 9.785156-9.785156h37.023438c-5.402344 0-9.785156 4.378906-9.785156 9.785156v185.652344c0 5.40625 4.382812 9.785156 9.785156 9.785156zm0 0" fill="#ebe0da"/><path d="m56.097656 368.28125h-37.023437c-10.539063 0-19.074219-8.539062-19.074219-19.074219v-47.085937h37.023438v47.085937c0 10.535157 8.539062 19.074219 19.074218 19.074219zm0 0" fill="#62a6fd"/><path d="m56.097656 368.28125h-37.023437c-10.539063 0-19.074219-8.539062-19.074219-19.074219v-47.085937h37.023438v47.085937c0 10.535157 8.539062 19.074219 19.074218 19.074219zm0 0" fill="#62a6fd"/><path d="m406.214844 202.589844h-300.429688c-2.628906 0-4.761718-2.128906-4.761718-4.757813v-93.816406c0-2.628906 2.132812-4.757813 4.761718-4.757813h300.429688c2.628906 0 4.761718 2.128907 4.761718 4.757813v93.816406c0 2.628907-2.132812 4.757813-4.761718 4.757813zm0 0" fill="#8ecb51"/><g fill="#fff5f4"><path d="m149.445312 141.996094c-4.4375-1.953125-7.941406-3.5-7.941406-5.949219 0-4.160156 8.433594-5.058594 14.472656-1.929687 1.1875.613281 2.3125 1.199218 3.734376 1.199218 4.3125 0 6.101562-5.03125 6.101562-7.726562 0-7.8125-14.359375-8.210938-17.234375-8.210938-10.089844 0-21.871094 4.6875-21.871094 17.886719 0 19.566406 25.769531 18.527344 25.769531 27.148437 0 3.179688-3.679687 4.308594-6.828124 4.308594-7.234376 0-9.386719-6.015625-13.816407-6.015625-3.820312 0-6.585937 4.710938-6.585937 7.886719 0 13.519531 42.027344 19.9375 42.027344-7.476562 0-13.261719-10.304688-17.800782-17.828126-21.121094zm0 0"/><path d="m199.460938 124.746094v36.90625c0 4.691406-2.269532 7.070312-6.746094 7.070312-4.472656 0-6.746094-2.378906-6.746094-7.070312v-36.90625c0-6.496094-14.792969-6.605469-14.792969 0v36.90625c0 13.054687 7.648438 20.242187 21.539063 20.242187 13.894531 0 21.542968-7.1875 21.542968-20.242187v-36.90625c0-6.503906-14.796874-6.597656-14.796874 0zm0 0"/><path d="m255.671875 148.039062c3.613281-2.472656 5.570313-6.875 5.570313-12.644531 0-10.15625-5.984376-15.527343-17.3125-15.527343h-16.664063c-3.171875 0-6.585937 1.554687-6.585937 4.960937v51.699219c0 2.425781 2.261718 4.878906 6.585937 4.878906h18.042969c11.21875 0 17.398437-6.582031 17.398437-18.535156 0-6.277344-.6875-11.664063-7.035156-14.832032zm-12.800781-5.816406h-7.476563v-9.183594h7.476563c4.726562 0 4.808594 9.183594 0 9.183594zm5.039062 19.589844c0 7.691406-4.800781 6.421875-12.515625 6.421875v-14.140625c9.652344 0 12.515625-1.242188 12.515625 7.71875zm0 0"/><path d="m310.992188 119.867188c-8.109376 0-8.007813 2.074218-18.210938 19.902343-10.199219-17.832031-10.101562-19.902343-18.207031-19.902343-3.414063 0-7.398438 1.9375-7.398438 7.398437v49.179687c0 6.617188 14.796875 6.613282 14.796875 0v-27.148437c6.042969 11.066406 6.378906 13.414063 10.648438 13.414063 4.46875 0 5.03125-2.695313 10.972656-12.847657v26.582031c0 6.617188 14.796875 6.613282 14.796875 0v-49.179687c0-5.453125-3.820313-7.398437-7.398437-7.398437zm0 0"/><path d="m325.054688 124.746094v51.699218c0 6.617188 14.796874 6.613282 14.796874 0v-51.699218c0-6.5625-14.796874-6.578125-14.796874 0zm0 0"/><path d="m382.773438 119.867188h-35.117188c-6.578125 0-6.449219 13.496093 0 13.496093h10.160156v43.082031c0 6.617188 14.796875 6.613282 14.796875 0v-43.082031h10.160157c6.445312 0 6.570312-13.496093 0-13.496093zm0 0"/></g><path d="m452.074219 205.910156-12.265625-12.269531 12.054687-12.054687c2.0625-2.0625 1.121094-5.582032-1.695312-6.335938l-59.0625-15.824219c-2.816407-.753906-5.394531 1.820313-4.636719 4.636719l15.824219 59.0625c.753906 2.816406 4.273437 3.757812 6.335937 1.695312l12.054688-12.054687 12.265625 12.265625c5.285156 5.28125 13.847656 5.28125 19.128906 0s5.28125-13.84375-.003906-19.121094zm0 0" fill="#62a6fd"/><path d="m452.074219 225.035156c-5.28125 5.28125-13.839844 5.28125-19.128907 0l-12.257812-12.269531-12.0625 12.058594c-2.0625 2.0625-5.574219 1.113281-6.335938-1.703125l-15.824218-59.058594c-.75-2.8125 1.820312-5.394531 4.644531-4.632812l12.957031 3.46875 11.976563 44.714843c.761719 2.816407 4.273437 3.757813 6.335937 1.691407l12.058594-12.046876 12.261719 12.261719c2.550781 2.539063 5.859375 3.859375 9.191406 3.945313.613281 4.09375-.664063 8.417968-3.816406 11.570312zm0 0" fill="#4394fb"/></svg>